<?xml version="1.0" encoding="UTF-8"?>
<svg xmlns="http://www.w3.org/2000/svg" xmlns:xlink="http://www.w3.org/1999/xlink" width="1366px" height="1366px" viewBox="0 0 1366 1366" version="1.1">
<g id="surface1">
<path style=" stroke:none;fill-rule:nonzero;fill:rgb(0%,0%,0%);fill-opacity:1;" d="M 668.125 7.625 C 669.558594 7.628906 670.996094 7.628906 672.472656 7.632812 C 765.917969 7.945312 855.53125 23.640625 942 60 C 943.828125 60.765625 945.660156 61.53125 947.546875 62.320312 C 996.78125 83.15625 1044.148438 110.675781 1086 144 C 1087.636719 145.277344 1089.273438 146.558594 1090.960938 147.875 C 1238.5625 264.269531 1331.265625 427.105469 1356 614 C 1356.613281 619.957031 1357 625.890625 1357.25 631.875 C 1357.324219 633.519531 1357.394531 635.164062 1357.472656 636.859375 C 1362.40625 763.929688 1337.695312 885.179688 1278 998 C 1277.367188 999.214844 1276.730469 1000.429688 1276.078125 1001.679688 C 1256.632812 1038.671875 1232.796875 1073.941406 1206 1106 C 1205.085938 1107.105469 1204.171875 1108.207031 1203.230469 1109.34375 C 1179.40625 1138.066406 1154.570312 1165.890625 1126 1190 C 1124.1875 1191.589844 1122.375 1193.179688 1120.507812 1194.820312 C 1092.402344 1219.335938 1061.609375 1240.289062 1030 1260 C 1028.726562 1260.804688 1027.457031 1261.609375 1026.144531 1262.4375 C 910.542969 1335.222656 778.632812 1359.628906 644 1358 C 642.332031 1357.984375 640.664062 1357.972656 638.945312 1357.957031 C 480.640625 1355.742188 321.167969 1269.53125 210 1162 C 208.246094 1160.3125 208.246094 1160.3125 206.457031 1158.589844 C 193.738281 1146.296875 181.671875 1133.828125 170.695312 1119.921875 C 167.273438 1115.605469 163.8125 1111.390625 160.242188 1107.203125 C 61.167969 989.960938 7.613281 834.792969 7.5 681.875 C 7.5 680.207031 7.496094 678.535156 7.496094 676.816406 C 7.683594 531.027344 60.152344 386.417969 150 272 C 151.386719 270.210938 152.773438 268.421875 154.203125 266.578125 C 158.070312 261.660156 162.015625 256.824219 166 252 C 167.617188 250.007812 169.238281 248.019531 170.90625 245.96875 C 195.019531 216.789062 221.941406 189.058594 252 166 C 254.222656 164.183594 256.4375 162.359375 258.648438 160.53125 C 290.292969 134.464844 324.5 112.425781 360 92 C 361.277344 91.261719 362.550781 90.523438 363.867188 89.761719 C 442.015625 44.957031 531.222656 21.179688 620 10 C 621.46875 9.792969 622.9375 9.585938 624.453125 9.371094 C 638.953125 7.464844 653.523438 7.597656 668.125 7.625 Z M 668.125 7.625 "/>
<path style=" stroke:none;fill-rule:nonzero;fill:rgb(99.607843%,99.607843%,99.607843%);fill-opacity:1;" d="M 919.5 357.625 C 922.515625 357.582031 922.515625 357.582031 925.59375 357.539062 C 942.835938 358.78125 951.535156 365.746094 962.929688 378 C 974.097656 391.21875 979.6875 403.132812 978.867188 420.632812 C 977.074219 431.730469 972.171875 440.746094 966 450 C 966.632812 456.734375 969.25 459.457031 974 464 C 974 465.320312 974 466.640625 974 468 C 975.320312 468 976.640625 468 978 468 C 980.398438 470.445312 980.398438 470.445312 983.375 474.125 C 989.554688 481.453125 996.152344 488.160156 1003 494.84375 C 1038.109375 529.125 1038.109375 529.125 1038.75 550 C 1038.601562 563.394531 1036.113281 573.238281 1028 584 C 1023.039062 588.726562 1017.898438 592.527344 1012 596 C 1010.789062 596.738281 1009.578125 597.480469 1008.328125 598.242188 C 996.535156 603.03125 981.722656 602.269531 970.046875 597.640625 C 957.382812 590.011719 947.265625 579.832031 937.09375 569.242188 C 932.910156 564.9375 928.703125 560.992188 924.125 557.125 C 912.765625 547.449219 902.464844 536.621094 892 526 C 881.417969 534.816406 871.625 544.152344 862 554 C 868.355469 561.625 874.800781 568.910156 881.875 575.875 C 916.574219 610.175781 916.574219 610.175781 918.875 629.25 C 918.710938 640.292969 913.136719 647.945312 906 656 C 897.71875 663.515625 888.425781 665.753906 877.359375 665.28125 C 861.378906 661.460938 848.84375 647.417969 837.820312 635.898438 C 832.660156 630.632812 827.117188 625.890625 821.53125 621.085938 C 817.5 617.5625 813.707031 613.859375 810 610 C 804.433594 612.542969 800.339844 615.160156 796.027344 619.492188 C 794.90625 620.609375 793.785156 621.722656 792.628906 622.875 C 791.421875 624.09375 790.214844 625.3125 788.976562 626.570312 C 787.6875 627.859375 786.398438 629.148438 785.070312 630.472656 C 780.816406 634.730469 776.582031 638.996094 772.34375 643.265625 C 769.398438 646.21875 766.449219 649.175781 763.5 652.125 C 755.746094 659.898438 748 667.679688 740.261719 675.464844 C 732.359375 683.410156 724.445312 691.339844 716.53125 699.273438 C 701.007812 714.835938 685.5 730.414062 670 746 C 670.695312 747.921875 671.390625 749.84375 672.105469 751.828125 C 673.023438 754.375 673.941406 756.921875 674.855469 759.46875 C 675.316406 760.734375 675.773438 762 676.242188 763.300781 C 684.445312 786.144531 686.511719 808.597656 686.625 832.75 C 686.636719 834.722656 686.648438 836.695312 686.660156 838.726562 C 686.457031 859.226562 683.105469 877.773438 675 896.625 C 674.300781 898.257812 673.597656 899.890625 672.875 901.570312 C 657.5625 935.820312 631.097656 966.058594 598 984 C 596.089844 985.0625 594.179688 986.125 592.210938 987.21875 C 549.660156 1009.75 500.457031 1015.015625 454.25 1001.359375 C 406.882812 986.195312 369.707031 954.488281 346.625 910.375 C 325.238281 867.054688 320.796875 815.980469 336 770 C 342.773438 750.804688 352.085938 734.441406 364 718 C 365.0625 716.417969 366.125 714.839844 367.21875 713.210938 C 389.640625 681.519531 433.382812 658.664062 470.523438 650.785156 C 481.109375 649.265625 491.746094 649.335938 502.417969 649.367188 C 506.464844 649.375 510.507812 649.328125 514.554688 649.277344 C 537.273438 649.265625 556.652344 652.957031 577.789062 661.222656 C 580.089844 662.121094 582.390625 663.015625 584.757812 663.9375 C 586.488281 664.617188 588.21875 665.300781 590 666 C 591.4375 664.558594 592.878906 663.117188 594.359375 661.636719 C 629.390625 626.558594 664.429688 591.484375 699.476562 556.421875 C 716.421875 539.464844 733.367188 522.503906 750.308594 505.539062 C 765.078125 490.75 779.851562 475.964844 794.628906 461.183594 C 802.449219 453.359375 810.269531 445.535156 818.082031 437.707031 C 825.445312 430.328125 832.8125 422.957031 840.183594 415.589844 C 842.882812 412.890625 845.578125 410.191406 848.273438 407.488281 C 897.863281 357.761719 897.863281 357.761719 919.5 357.625 Z M 919.5 357.625 "/>
<path style=" stroke:none;fill-rule:nonzero;fill:rgb(1.176471%,1.176471%,1.176471%);fill-opacity:1;" d="M 529.875 787.125 C 541.875 796.675781 550.828125 806.378906 552.742188 822.101562 C 553.097656 839.515625 550.574219 848.898438 538.710938 861.492188 C 528.277344 871.3125 516.84375 875.179688 502.359375 874.757812 C 490.894531 872.765625 479.808594 866.898438 472.125 858.125 C 470.765625 856.105469 469.402344 854.082031 468 852 C 466.207031 849.402344 466.207031 849.402344 464.375 846.75 C 460.234375 834.980469 459.765625 822.800781 463.6875 810.867188 C 469.585938 799.085938 479 789.09375 491.703125 784.726562 C 503.847656 782.671875 518.667969 781.246094 529.875 787.125 Z M 529.875 787.125 "/>
</g>
</svg>
